<?xml version="1.0" encoding="utf-8"?>
<!-- Generator: Adobe Illustrator 19.0.0, SVG Export Plug-In . SVG Version: 6.00 Build 0)  -->
<svg version="1.1" id="Layer_1" xmlns="http://www.w3.org/2000/svg" xmlns:xlink="http://www.w3.org/1999/xlink" x="0px" y="0px"
	 viewBox="0 0 1437.1 479" style="enable-background:new 0 0 1437.1 479;" xml:space="preserve">
<style type="text/css">
	.st0{fill:#C6BFAC;stroke:#C6C0AC;stroke-width:2;stroke-miterlimit:10;}
	.st1{fill:none;stroke:#C6C0AC;stroke-width:2;stroke-miterlimit:10;}
	.st2{fill:#C6C0AC;stroke:#C6C0AC;stroke-width:2;stroke-miterlimit:10;}
	.st3{fill:#CB1E2D;stroke:#CB1E2D;stroke-width:2;stroke-miterlimit:10;}
	.st4{fill:none;stroke:#CB1E2D;stroke-width:2;stroke-miterlimit:10;}
	.st5{fill:#C12524;stroke:#CB1E2D;stroke-width:2;stroke-miterlimit:10;}
	.st6{fill:#BF2626;stroke:#CB1E2D;stroke-width:2;stroke-miterlimit:10;}
	.st7{fill:#CF1D26;stroke:#CB1E2D;stroke-width:2;stroke-miterlimit:10;}
	.st8{fill:#C72126;stroke:#CB1E2D;stroke-width:2;stroke-miterlimit:10;}
	.st9{fill:#020202;stroke:#020202;stroke-width:2;stroke-miterlimit:10;}
	.st10{fill:none;stroke:#000000;stroke-width:2;stroke-miterlimit:10;}
	.st11{fill:#0C0C0C;stroke:#000000;stroke-width:2;stroke-miterlimit:10;}
	.st12{stroke:#020202;stroke-width:2;stroke-miterlimit:10;}
	.st13{stroke:#000000;stroke-width:2;stroke-miterlimit:10;}
	.st14{fill:none;stroke:#020202;stroke-width:2;stroke-miterlimit:10;}
	.st15{fill:none;stroke:#050505;stroke-width:2;stroke-miterlimit:10;}
</style>
<g>
	<path class="st0" d="M957.3,263.4c0.3-12.2-1-24.4,0-36.6c0.1-1.6,0-3.2,0-4.8c0.8-1.4,0.7-3,0.8-4.4c1.8-19.9,6.4-39.1,13.2-57.9
		c4.1-11.5,9.4-22.6,15.3-33.3c7-12.8,15.2-24.7,24.5-36c6.5-7.9,13.5-15.4,20.9-22.4c13.4-12.5,28-23.5,43.9-32.7
		c14.9-8.6,30.6-15.5,47-20.7c11-3.5,22.3-6.2,33.7-8c6.1-1,12.3-1.8,18.5-2.2c2.5-0.2,5.1-0.4,7.6-0.4c0.4,0,0.8-0.1,1.1-0.4
		c6.9,0,13.8,0,20.6,0c0.3,0.3,0.7,0.4,1.1,0.4c3.4-0.2,6.7,0.4,10,0.6c3.1,0.2,6.2,0.5,9.3,1c6.2,0.9,12.4,1.9,18.6,3.2
		c6.3,1.3,12.6,2.9,18.8,4.7c14.1,4.2,27.8,9.6,40.9,16.4c13.1,6.8,25.5,14.6,37.1,23.7c9.1,7.1,17.7,14.7,25.7,23
		c12.6,13.1,23.6,27.5,32.9,43.1c9.3,15.6,16.7,32,22.2,49.3c3.2,10,5.8,20.2,7.5,30.6c1.1,6.2,2,12.4,2.5,18.7
		c0.2,2.9,0.3,5.7,0.4,8.6c0,0.6-0.2,1.3,0.4,1.8c0,8.3,0,16.6,0,25c-0.5,0.4-0.4,1-0.4,1.5c-0.1,3-0.2,6.1-0.4,9.1
		c-0.5,5.6-1.2,11.2-2.2,16.8c-1.3,8-3.1,16-5.3,23.8c-2.7,9.7-6,19.2-9.9,28.5c-6.5,15.4-14.5,29.9-24,43.6
		c-5.6,8-11.7,15.6-18.2,22.9c-4.5,5.1-9.3,9.9-14.2,14.6c-7.8,7.5-16.2,14.2-25,20.5c-12,8.6-24.7,15.9-38.1,22.1
		c-14.4,6.7-29.3,11.8-44.7,15.5c-7.9,1.9-15.9,3.4-24,4.4c-5.1,0.6-10.3,1.1-15.5,1.5c-9.5,0.7-19,0.5-28.5,0.2
		c-6-0.2-11.9-0.9-17.8-1.7c-9.6-1.2-19-3-28.4-5.4c-12.3-3.2-24.3-7.3-36-12.4c-12.6-5.5-24.5-12.1-35.9-19.6
		c-7.7-5.1-15.1-10.7-22.2-16.7c-5.5-4.7-10.8-9.5-15.9-14.6c-13.2-13.6-24.8-28.4-34.5-44.6c-10-16.6-17.8-34.1-23.5-52.6
		c-2.9-9.5-5.2-19.1-6.8-28.8c-1-5.9-2-11.8-2.4-17.8C958.1,264,958,263.5,957.3,263.4z M1205.9,10.9
		c-138.4-0.2-241.3,103-241.9,228.6c-0.3,63.6,22,118.8,66.7,164c44.8,45.4,99.9,67.7,163.7,68.7c63.2-1,117.9-22.8,162.7-67.5
		c45-44.8,67.8-99.6,67.9-163c0.1-63.3-22.5-118.1-67.3-162.9C1312.7,33.7,1257.7,11.8,1205.9,10.9z"/>
	<path class="st1" d="M1205.9,10.9c51.8,0.9,106.8,22.8,151.8,67.8c44.8,44.8,67.4,99.6,67.3,162.9c-0.1,63.4-22.9,118.1-67.9,163
		c-44.8,44.7-99.6,66.5-162.7,67.5c-63.7-1-118.9-23.2-163.7-68.7c-44.6-45.2-66.9-100.4-66.7-164
		C964.6,113.9,1067.5,10.8,1205.9,10.9z M1074.8,332c0.4,0.8-0.7,1.5-0.1,2.2c81.4,0,162.8,0,244.2,0c0.2-0.9-0.5-1.5-0.2-2.2
		c1.9,1.4,2.9,3.6,4.4,5.3c0.6,0.7,1.1,1.7,2.2,2.3c0.1-0.8,0.1-1.2,0.1-1.7c0-61.3-0.1-122.7-0.1-184c0-0.1-0.1-0.1-0.1-0.2
		c-0.1-0.1-0.1-0.1-0.4-0.2c-3.9,3.3-7.8,6.7-11.7,10.1c-4.4,3.8-8.7,7.7-13.1,11.5c-4.6,4-9.2,7.9-13.7,11.9
		c-4.2,3.7-8.4,7.4-12.6,11.1c-5.5,4.8-11.1,9.6-16.7,14.4c-4.5,3.9-9,7.9-13.5,11.9c-2.4,2.1-2.5,2.1-2,4.8c-2-1.4-2-1.4-3.8,0.2
		c-4.3,3.8-8.6,7.6-12.9,11.4c-6,5.2-11.9,10.4-17.9,15.6c-2.8,2.5-5.6,5-8.5,7.4c-1.3,1.2-1.7,1.2-3.1,0c-2.9-2.5-5.8-5.1-8.6-7.6
		c-4.3-3.7-8.5-7.5-12.8-11.2c-6-5.2-11.9-10.4-17.9-15.6c-1.8-1.6-1.8-1.6-3.8-0.2c0.1-1.4,0.7-2.7-0.8-4
		c-5.8-4.8-11.4-9.8-17-14.7c-5.7-4.9-11.2-9.9-16.9-14.9c-8.1-7-16.2-14-24.2-21c-7.8-6.8-15.6-13.7-23.4-20.5
		c-0.4-0.3-0.7-0.9-1.4-0.5c0,62,0,124,0,186.4c0.9-1.2,1.6-2.1,2.3-2.9C1072,335.6,1072.9,333.4,1074.8,332z M1063.8,144.8
		c0.5,0.9,1.2,1.5,1.9,2.1c4.2,3.7,8.5,7.3,12.7,10.9c7.6,6.6,15.2,13.2,22.7,19.8c7.5,6.6,15,13.1,22.6,19.7
		c7.5,6.6,15,13.1,22.6,19.7c7.7,6.7,15.4,13.4,23.1,20.2c6.9,6.1,13.8,12.1,20.7,18.2c1.9,1.6,3.8,3.2,5.6,4.8
		c0.7,0.6,1.2,0.8,2,0.1c2.1-1.9,4.2-3.6,6.3-5.5c4.4-3.9,8.9-7.8,13.3-11.7c5.9-5.1,11.8-10.3,17.7-15.4c2.9-2.6,5.9-5.2,8.8-7.7
		c4.5-3.9,8.9-7.7,13.4-11.6c4.3-3.8,8.6-7.6,13-11.4c4.6-4,9.2-7.9,13.7-11.9c4.2-3.7,8.4-7.4,12.6-11.1
		c5.5-4.8,11.1-9.6,16.7-14.4c4.7-4.1,9.4-8.1,14.1-12.3c0.8-0.7,1.9-1.4,2.3-2.6C1326.5,144.2,1065.7,144.3,1063.8,144.8z"/>
	<path class="st0" d="M1152.1,229.3c2-1.4,2-1.4,3.8,0.2c5.9,5.2,11.9,10.4,17.9,15.6c4.3,3.7,8.5,7.5,12.8,11.2
		c2.9,2.5,5.7,5.1,8.6,7.6c1.3,1.2,1.7,1.2,3.1,0c2.8-2.4,5.6-5,8.5-7.4c6-5.2,11.9-10.4,17.9-15.6c4.3-3.8,8.6-7.6,12.9-11.4
		c1.8-1.6,1.8-1.6,3.8-0.2l0,0c0.1,0.9,0.4,1.5,1.5,1.5l0,0c-0.1,1.1,0.2,1.9,1.5,1.9l0,0c-0.2,1.2,0.5,1.9,1.5,2.4l0,0
		c0.1,0.9,0.4,1.5,1.5,1.5l0,0c-0.1,1.1,0.2,1.9,1.5,1.9l0,0c-0.1,1.1,0.2,1.9,1.5,1.9l0,0c-0.1,1.1,0.2,1.9,1.5,1.9l0,0
		c-0.1,1.1,0.2,1.9,1.5,1.9l0,0c-0.1,1.1,0.2,1.9,1.5,1.9l0,0c-0.1,1.1,0.2,1.9,1.5,1.9l0,0c-0.1,1.1,0.2,1.9,1.5,1.9l0,0
		c-0.1,1.1,0.2,1.9,1.5,1.9l0,0c-0.3,1.4,0.8,2.2,1.5,3.1c10.4,14,20.9,28,31.4,41.9c1.3,1.7,2.3,3.7,4.1,4.9l0,0
		c0.1,0.9,0.6,1.5,1.5,1.9l0,0c0.1,1,0.6,1.5,1.5,1.9l0,0c0.1,0.9,0.6,1.5,1.5,1.9l0,0c0.1,0.9,0.6,1.5,1.5,1.9l0,0
		c0.1,0.9,0.6,1.6,1.5,1.9l0,0c0.1,1,0.6,1.6,1.5,1.9l0,0c0.1,1,0.6,1.6,1.5,1.9l0,0c0.1,1,0.6,1.6,1.5,1.9l0,0
		c0.1,1,0.6,1.6,1.5,1.9l0,0c0.1,1,0.6,1.6,1.5,1.9l0,0c0.1,1,0.6,1.6,1.5,1.9l0,0c0.1,0.9,0.4,1.5,1.5,1.5l0,0
		c-0.1,1.1,0.2,1.9,1.5,1.9l0,0c-0.2,1.2,0.5,1.9,1.5,2.4l0,0c0.1,1,0.6,1.6,1.5,1.9l0,0c0.1,0.9,0.4,1.5,1.5,1.5l0,0
		c-0.3,0.7,0.5,1.3,0.2,2.2c-81.4,0-162.7,0-244.2,0c-0.5-0.8,0.5-1.5,0.1-2.2l0,0c1,0.1,1.4-0.6,1.5-1.5l0,0c0.8-0.4,1.4-1,1.5-1.9
		l0,0c1-0.5,1.7-1.2,1.5-2.4l0,0c1.3-0.1,1.6-0.8,1.5-1.9l0,0c1,0.1,1.4-0.6,1.5-1.5l0,0c0.8-0.4,1.4-1,1.5-1.9l0,0
		c0.8-0.4,1.4-1,1.5-1.9l0,0c0.8-0.4,1.4-1,1.5-1.9l0,0c0.8-0.4,1.4-1,1.5-1.9l0,0c0.8-0.4,1.4-1,1.5-1.9l0,0c0.8-0.4,1.4-1,1.5-1.9
		l0,0c0.8-0.4,1.4-1,1.5-1.9l0,0c0.8-0.4,1.4-1,1.5-1.9l0,0c0.8-0.4,1.4-1,1.5-1.9l0,0c0.8-0.4,1.4-1,1.5-1.9l0,0
		c0.8-0.4,1.4-1,1.5-1.9l0,0c0.7-0.2,1-0.8,1.4-1.3c5.2-6.9,10.3-13.8,15.5-20.6c4.8-6.4,9.7-12.9,14.5-19.3
		c0.6-0.8,1.7-1.6,1.4-2.9l0,0c1.3-0.1,1.6-0.8,1.5-1.9l0,0c1.3-0.1,1.6-0.8,1.5-1.9l0,0c1.3-0.1,1.6-0.8,1.5-1.9l0,0
		c1.3-0.1,1.6-0.8,1.5-1.9l0,0c1.3-0.1,1.6-0.8,1.5-1.9l0,0c1.3-0.1,1.6-0.8,1.5-1.9l0,0c1,0.1,1.4-0.6,1.5-1.5l0,0
		c1-0.5,1.7-1.2,1.5-2.4l0,0c1.3-0.1,1.6-0.8,1.5-1.9l0,0c1,0.1,1.4-0.6,1.5-1.5l0,0c0.8-0.4,1.4-1,1.5-1.9l0,0
		c0.8-0.4,1.4-1,1.5-1.9l0,0c0.8-0.4,1.4-1,1.5-1.9l0,0c0.8-0.4,1.4-1,1.5-1.9l0,0C1151.5,230.9,1152,230.3,1152.1,229.3
		L1152.1,229.3z M1088.4,327.1c72.3,0,144.4,0,216.5,0c-0.3-0.9-0.8-1.5-1.3-2.2c-12.6-16.8-25.2-33.6-37.8-50.4
		c-8.7-11.6-17.4-23.3-26.1-34.9c-1-1.3-1.2-1.4-2.4-0.3c-3.9,3.4-7.8,6.8-11.7,10.2c-6,5.2-11.9,10.4-17.9,15.6
		c-3.2,2.8-6.5,5.5-9.6,8.3c-1.1,1-1.7,1-2.8,0c-6.8-6-13.6-11.8-20.4-17.7c-6.3-5.4-12.5-10.9-18.8-16.4c-1.3-1.1-1.4-1.1-2.4,0.2
		c-5.8,7.7-11.6,15.5-17.4,23.2c-14.1,18.9-28.2,37.7-42.3,56.6C1092.2,321.8,1090.2,324.2,1088.4,327.1z"/>
	<path class="st2" d="M1063.8,144.8c1.9-0.5,262.7-0.6,265.8-0.2c-0.4,1.3-1.4,1.9-2.3,2.6c-4.7,4.1-9.4,8.2-14.1,12.3
		c-5.6,4.8-11.1,9.6-16.7,14.4c-4.2,3.7-8.4,7.4-12.6,11.1c-4.6,4-9.2,7.9-13.7,11.9c-4.3,3.8-8.6,7.6-13,11.4
		c-4.5,3.9-8.9,7.7-13.4,11.6c-3,2.6-5.9,5.2-8.8,7.7c-5.9,5.1-11.8,10.3-17.7,15.4c-4.4,3.9-8.9,7.8-13.3,11.7
		c-2.1,1.8-4.3,3.6-6.3,5.5c-0.8,0.7-1.3,0.6-2-0.1c-1.8-1.6-3.8-3.2-5.6-4.8c-6.9-6.1-13.8-12.1-20.7-18.2
		c-7.7-6.7-15.4-13.5-23.1-20.2c-7.5-6.6-15-13.1-22.6-19.7c-7.5-6.6-15-13.1-22.6-19.7c-7.6-6.6-15.1-13.2-22.7-19.8
		c-4.2-3.7-8.5-7.3-12.7-10.9C1065,146.3,1064.3,145.7,1063.8,144.8z M1082.6,151.7c1.4,2,3.2,3.1,4.7,4.5c3.2,2.9,6.4,5.7,9.7,8.6
		c4.5,3.9,9.1,7.8,13.6,11.8c4.3,3.7,8.5,7.5,12.8,11.2c5.8,5.1,11.7,10.2,17.5,15.2c3,2.6,5.9,5.2,8.8,7.7c4.3,3.8,8.7,7.5,13,11.3
		c4.5,3.9,8.9,7.8,13.3,11.7c5.9,5.2,11.9,10.4,17.9,15.6c3.1,2.7,2.4,2.8,5.7-0.1c3.3-2.8,6.5-5.7,9.7-8.6
		c5.6-4.9,11.2-9.7,16.8-14.6c4.3-3.7,8.5-7.5,12.8-11.2c6.1-5.3,12.2-10.6,18.2-15.9c2.9-2.6,5.9-5.2,8.8-7.7
		c5.7-5,11.5-9.9,17.2-14.9c4.2-3.7,8.4-7.4,12.6-11c4.6-4,9.2-8,13.7-12c0.4-0.4,1.1-0.7,1.1-1.6
		C1234.7,151.7,1158.8,151.7,1082.6,151.7z"/>
	<path class="st2" d="M1074.8,332c-1.9,1.4-2.9,3.6-4.4,5.3c-0.7,0.8-1.3,1.7-2.3,2.9c0-62.5,0-124.5,0-186.4
		c0.7-0.4,1.1,0.2,1.4,0.5c7.8,6.8,15.6,13.7,23.4,20.5c8.1,7,16.2,14,24.2,21c5.7,4.9,11.3,9.9,16.9,14.9c5.6,4.9,11.3,9.9,17,14.7
		c1.6,1.3,0.9,2.6,0.8,4c0,0,0,0,0,0c-1.3,0.1-1.6,0.8-1.5,1.9c0,0,0,0,0,0c-1.3,0.1-1.6,0.8-1.5,1.9l0,0c-1.3,0.1-1.6,0.8-1.5,1.9
		l0,0c-1.3,0.1-1.6,0.8-1.5,1.9l0,0c-1.3,0.1-1.6,0.8-1.5,1.9l0,0c-1-0.1-1.4,0.6-1.5,1.5c0,0,0,0,0,0c-0.8,0.4-1.4,1-1.5,1.9
		c0,0,0,0,0,0c-1,0.5-1.7,1.2-1.5,2.4l0,0c-1-0.1-1.4,0.6-1.5,1.5l0,0c-0.8,0.4-1.4,1-1.5,1.9c0,0,0,0,0,0c-0.8,0.4-1.4,1-1.5,1.9
		l0,0c-0.8,0.4-1.4,1-1.5,1.9l0,0c-0.8,0.4-1.4,1-1.5,1.9c0,0,0,0,0,0c-0.8,0.4-1.4,1-1.5,1.9l0,0c-0.8,0.4-1.4,1-1.5,1.9l0,0
		c-0.7,0.2-1.1,0.9-1.5,1.5c-5.1,6.8-10.1,13.5-15.2,20.3c-4.9,6.6-9.9,13.1-14.8,19.7c-0.6,0.8-1.5,1.5-1.2,2.7l0,0
		c-1.3,0-1.6,0.8-1.5,1.9c0,0,0,0,0,0c-1.3,0-1.6,0.8-1.5,1.9c0,0,0,0,0,0c-1.3,0-1.6,0.8-1.5,1.9l0,0c-1.3,0-1.6,0.8-1.5,1.9l0,0
		c-1.3,0-1.6,0.8-1.5,1.9l0,0c-1.3,0-1.6,0.8-1.5,1.9c0,0,0,0,0,0c-1.3,0.1-1.6,0.8-1.5,1.9l0,0c-1.3,0.1-1.6,0.8-1.5,1.9l0,0
		c-1.3,0.1-1.6,0.8-1.5,1.9l0,0c-1.3,0.1-1.6,0.8-1.5,1.9c0,0,0,0,0,0c-1.3,0.1-1.6,0.8-1.5,1.9l0,0c-1-0.1-1.4,0.6-1.5,1.5
		c0,0,0,0,0,0c-0.8,0.4-1.4,1-1.5,1.9l0,0c-1,0.5-1.7,1.2-1.5,2.4l0,0c-1.3,0.1-1.6,0.8-1.5,1.9l0,0
		C1075.2,330.5,1074.9,331.2,1074.8,332L1074.8,332z M1075.4,318.2c0.6,0.1,0.8-0.4,1-0.7c7.6-10.1,15.2-20.2,22.7-30.3
		c11.8-15.7,23.5-31.5,35.3-47.2c2.7-3.6,5.3-7.2,8-10.8c0.6-0.8,0.8-1.4-0.2-2.2c-1-0.8-1.9-1.7-2.8-2.6
		c-6.8-5.9-13.7-11.8-20.5-17.7c-5.7-4.9-11.3-9.9-16.9-14.9c-7.5-6.5-14.9-13.1-22.4-19.5c-1.3-1.1-2.5-2.6-4.2-3.3
		C1075.4,219,1075.4,268.6,1075.4,318.2z"/>
	<path class="st2" d="M1258.7,251.9c-0.1-1-0.6-1.6-1.5-1.9l0,0c-0.1-1-0.6-1.6-1.5-1.9l0,0c-0.1-1-0.6-1.6-1.5-1.9c0,0,0,0,0,0
		c-0.1-1-0.6-1.6-1.5-1.9l0,0c-0.1-1-0.6-1.6-1.5-1.9l0,0c-0.1-1-0.6-1.6-1.5-1.9l0,0c-0.1-1-0.6-1.6-1.5-1.9c0,0,0,0,0,0
		c-0.1-1-0.6-1.6-1.5-1.9l0,0c-0.1-0.9-0.4-1.5-1.5-1.5l0,0c0.2-1.2-0.5-1.9-1.5-2.4l0,0c-0.1-1-0.6-1.6-1.5-1.9l0,0
		c-0.1-0.9-0.4-1.5-1.5-1.5l0,0c-0.4-2.7-0.4-2.7,2-4.8c4.5-3.9,9-7.9,13.5-11.9c5.5-4.8,11.1-9.6,16.7-14.4
		c4.2-3.7,8.4-7.4,12.6-11.1c4.6-4,9.2-7.9,13.7-11.9c4.4-3.8,8.7-7.7,13.1-11.5c3.9-3.4,7.8-6.8,11.7-10.1c0.2,0.1,0.3,0.2,0.4,0.2
		c0.1,0,0.1,0.1,0.1,0.2c0,61.3,0.1,122.7,0.1,184c0,0.5-0.1,0.9-0.1,1.7c-1.1-0.6-1.6-1.6-2.2-2.3c-1.5-1.7-2.4-3.9-4.4-5.3
		c0,0,0,0,0,0c-0.1-0.9-0.4-1.5-1.5-1.5c0,0,0,0,0,0c0.1-1.1-0.2-1.9-1.5-1.9l0,0c0.2-1.2-0.5-1.9-1.5-2.4l0,0
		c-0.1-1-0.6-1.6-1.5-1.9l0,0c-0.1-0.9-0.4-1.5-1.5-1.5c0,0,0,0,0,0c0.1-1.1-0.2-1.9-1.5-1.9c0,0,0,0,0,0c0.1-1.1-0.2-1.9-1.5-1.9
		l0,0c0.1-1.1-0.2-1.9-1.5-1.9l0,0c0.1-1.1-0.2-1.9-1.5-1.9l0,0c0.1-1.1-0.2-1.9-1.5-1.9c0,0,0,0,0,0c0.1-1.1-0.2-1.9-1.5-1.9l0,0
		c0.1-1.1-0.1-1.9-1.5-1.9c0,0,0,0,0,0c0.1-1.1-0.1-1.9-1.5-1.9l0,0c0.1-1.1-0.1-1.9-1.5-1.9c0,0,0,0,0,0c0.1-1.1-0.1-1.9-1.5-1.9
		c0,0,0,0,0,0c0.1-1.1-0.1-1.9-1.5-1.9l0,0c0.3-1.4-0.8-2.2-1.5-3.1c-2.7-3.7-5.4-7.3-8.2-10.9c-8.7-11.7-17.5-23.4-26.2-35
		 M1318.1,169.5c-0.8,0-1.2,0.4-1.5,0.7c-4.1,3.6-8.2,7.2-12.3,10.7c-5.5,4.8-11.1,9.6-16.7,14.4c-4.5,3.9-9,7.9-13.5,11.9
		c-7.4,6.5-14.9,13-22.4,19.5c-1.5,1.3-1.5,1.4-0.4,3c0.2,0.3,0.4,0.5,0.6,0.8c11.2,15,22.4,29.9,33.6,44.9c10.5,14,21,28,31.5,42
		c0.3,0.3,0.3,1,1,0.7C1318.1,268.6,1318.1,219.1,1318.1,169.5z"/>
	<path class="st1" d="M1088.4,327.1c1.7-2.9,3.7-5.3,5.6-7.7c14.1-18.9,28.2-37.7,42.3-56.6c5.8-7.7,11.6-15.5,17.4-23.2
		c1-1.3,1.1-1.3,2.4-0.2c6.3,5.5,12.5,10.9,18.8,16.4c6.8,5.9,13.7,11.8,20.4,17.7c1.1,1,1.7,1,2.8,0c3.1-2.8,6.4-5.5,9.6-8.3
		c6-5.2,11.9-10.4,17.9-15.6c3.9-3.4,7.8-6.8,11.7-10.2c1.3-1.1,1.4-1.1,2.4,0.3c8.7,11.6,17.4,23.3,26.1,34.9
		c12.6,16.8,25.2,33.6,37.8,50.4c0.5,0.6,1,1.2,1.3,2.2C1232.8,327.1,1160.8,327.1,1088.4,327.1z"/>
	<path class="st1" d="M1082.6,151.7c76.2,0,152.1,0,228,0c0,0.9-0.6,1.2-1.1,1.6c-4.6,4-9.1,8-13.7,12c-4.2,3.7-8.4,7.4-12.6,11
		c-5.7,5-11.5,9.9-17.2,14.9c-3,2.6-5.9,5.2-8.8,7.7c-6.1,5.3-12.2,10.6-18.2,15.9c-4.3,3.7-8.5,7.5-12.8,11.2
		c-5.6,4.9-11.2,9.7-16.8,14.6c-3.3,2.8-6.4,5.7-9.7,8.6c-3.3,2.9-2.6,2.8-5.7,0.1c-6-5.1-11.9-10.4-17.9-15.6
		c-4.4-3.9-8.9-7.8-13.3-11.7c-4.3-3.8-8.7-7.5-13-11.3c-3-2.6-5.9-5.2-8.8-7.7c-5.8-5.1-11.7-10.2-17.5-15.2
		c-4.3-3.7-8.5-7.5-12.8-11.2c-4.5-3.9-9.1-7.8-13.6-11.8c-3.2-2.8-6.5-5.7-9.7-8.6C1085.8,154.8,1084,153.7,1082.6,151.7z"/>
	<path class="st1" d="M1075.4,318.2c0-49.6,0-99.2,0-149.1c1.7,0.8,2.9,2.2,4.2,3.3c7.5,6.4,15,13,22.4,19.5
		c5.6,4.9,11.3,9.9,16.9,14.9c6.8,5.9,13.6,11.8,20.5,17.7c1,0.8,1.8,1.8,2.8,2.6c1,0.7,0.8,1.3,0.2,2.2c-2.7,3.6-5.3,7.2-8,10.8
		c-11.8,15.7-23.5,31.5-35.3,47.2c-7.6,10.1-15.2,20.2-22.7,30.3C1076.1,317.8,1076,318.3,1075.4,318.2z"/>
	<path class="st1" d="M1318.1,169.5c0,49.7,0,99.1,0,148.7c-0.7,0.2-0.7-0.4-1-0.7c-10.5-14-21-28-31.5-42
		c-11.2-15-22.4-29.9-33.6-44.9c-0.2-0.3-0.4-0.5-0.6-0.8c-1.2-1.7-1.2-1.7,0.4-3c7.5-6.5,14.9-13,22.4-19.5c4.5-3.9,9-8,13.5-11.9
		c5.5-4.8,11.1-9.6,16.7-14.4c4.1-3.6,8.2-7.2,12.3-10.7C1316.9,169.9,1317.2,169.5,1318.1,169.5z"/>
</g>
<g>
	<path class="st3" d="M481.4,262.1c0.3-12.2-1-24.4,0-36.6c0.1-1.6,0-3.2,0-4.8c0.8-1.4,0.7-3,0.8-4.4c1.8-19.9,6.4-39.1,13.2-57.9
		c4.1-11.5,9.4-22.6,15.3-33.3c7-12.8,15.2-24.7,24.5-36c6.5-7.9,13.5-15.4,20.9-22.4c13.4-12.5,28-23.5,43.9-32.7
		c14.9-8.6,30.6-15.5,47-20.7c11-3.5,22.3-6.2,33.7-8c6.1-1,12.3-1.8,18.5-2.2c2.5-0.2,5.1-0.4,7.6-0.4c0.4,0,0.8-0.1,1.1-0.4
		c6.9,0,13.8,0,20.6,0c0.3,0.3,0.7,0.4,1.1,0.4c3.4-0.2,6.7,0.4,10,0.6c3.1,0.2,6.2,0.5,9.3,1c6.2,0.9,12.4,1.9,18.6,3.2
		c6.3,1.3,12.6,2.9,18.8,4.7c14.1,4.2,27.8,9.6,40.9,16.4c13.1,6.8,25.5,14.6,37.1,23.7c9.1,7.1,17.7,14.7,25.7,23
		c12.6,13.1,23.6,27.5,32.9,43.1c9.3,15.6,16.7,32,22.2,49.3c3.2,10,5.8,20.2,7.5,30.6c1.1,6.2,2,12.4,2.5,18.7
		c0.2,2.9,0.3,5.7,0.4,8.6c0,0.6-0.2,1.3,0.4,1.8c0,8.3,0,16.6,0,25c-0.5,0.4-0.4,1-0.4,1.5c-0.1,3-0.2,6.1-0.4,9.1
		c-0.5,5.6-1.2,11.2-2.2,16.8c-1.3,8-3.1,16-5.3,23.8c-2.7,9.7-6,19.2-9.9,28.5c-6.5,15.4-14.5,29.9-24,43.6
		c-5.6,8-11.7,15.6-18.2,22.9c-4.5,5.1-9.3,9.9-14.2,14.6c-7.8,7.5-16.2,14.2-25,20.5c-12,8.6-24.7,15.9-38.1,22.1
		c-14.4,6.7-29.3,11.8-44.7,15.5c-7.9,1.9-15.9,3.4-24,4.4c-5.1,0.6-10.3,1.1-15.5,1.5c-9.5,0.7-19,0.5-28.5,0.2
		c-6-0.2-11.9-0.9-17.8-1.7c-9.6-1.2-19-3-28.4-5.4c-12.3-3.2-24.3-7.3-36-12.4c-12.6-5.5-24.5-12.1-35.9-19.6
		c-7.7-5.1-15.1-10.7-22.2-16.7c-5.5-4.7-10.8-9.5-15.9-14.6c-13.2-13.6-24.8-28.4-34.5-44.6c-10-16.6-17.8-34.1-23.5-52.6
		c-2.9-9.5-5.2-19.1-6.8-28.8c-1-5.9-2-11.8-2.4-17.8C482.2,262.7,482.2,262.2,481.4,262.1z M730,9.6
		c-138.4-0.2-241.3,103-241.9,228.6c-0.3,63.6,22,118.8,66.7,164c44.8,45.4,99.9,67.7,163.7,68.7c63.2-1,117.9-22.8,162.7-67.5
		c45-44.8,67.8-99.6,67.9-163c0.1-63.3-22.5-118.1-67.3-162.9C836.9,32.4,781.8,10.5,730,9.6z"/>
	<path class="st4" d="M730,9.6c51.8,0.9,106.8,22.8,151.8,67.8c44.8,44.8,67.4,99.6,67.3,162.9c-0.1,63.4-22.9,118.1-67.9,163
		c-44.8,44.7-99.6,66.5-162.7,67.5c-63.7-1-118.9-23.2-163.7-68.7c-44.6-45.2-66.9-100.4-66.7-164C488.7,112.6,591.6,9.5,730,9.6z
		 M599,330.7c0.4,0.8-0.7,1.5-0.1,2.2c81.4,0,162.8,0,244.2,0c0.2-0.9-0.5-1.5-0.2-2.2c1.9,1.4,2.9,3.6,4.4,5.3
		c0.6,0.7,1.1,1.7,2.2,2.3c0.1-0.8,0.1-1.2,0.1-1.7c0-61.3-0.1-122.7-0.1-184c0-0.1-0.1-0.1-0.1-0.2c-0.1-0.1-0.1-0.1-0.4-0.2
		c-3.9,3.3-7.8,6.7-11.7,10.1c-4.4,3.8-8.7,7.7-13.1,11.5c-4.6,4-9.2,7.9-13.7,11.9c-4.2,3.7-8.4,7.4-12.6,11.1
		c-5.5,4.8-11.1,9.6-16.7,14.4c-4.5,3.9-9,7.9-13.5,11.9c-2.4,2.1-2.5,2.1-2,4.8c-2-1.4-2-1.4-3.8,0.2c-4.3,3.8-8.6,7.6-12.9,11.4
		c-6,5.2-11.9,10.4-17.9,15.6c-2.8,2.5-5.6,5-8.5,7.4c-1.3,1.2-1.7,1.2-3.1,0c-2.9-2.5-5.8-5.1-8.6-7.6c-4.3-3.7-8.5-7.5-12.8-11.2
		c-6-5.2-11.9-10.4-17.9-15.6c-1.8-1.6-1.8-1.6-3.8-0.2c0.1-1.4,0.7-2.7-0.8-4c-5.8-4.8-11.4-9.8-17-14.7
		c-5.7-4.9-11.2-9.9-16.9-14.9c-8.1-7-16.2-14-24.2-21c-7.8-6.8-15.6-13.7-23.4-20.5c-0.4-0.3-0.7-0.9-1.4-0.5c0,62,0,124,0,186.4
		c0.9-1.2,1.6-2.1,2.3-2.9C596.1,334.3,597.1,332.1,599,330.7z M587.9,143.5c0.5,0.9,1.2,1.5,1.9,2.1c4.2,3.7,8.5,7.3,12.7,10.9
		c7.6,6.6,15.2,13.2,22.7,19.8c7.5,6.6,15,13.1,22.6,19.7c7.5,6.6,15,13.1,22.6,19.7c7.7,6.7,15.4,13.4,23.1,20.2
		c6.9,6.1,13.8,12.1,20.7,18.2c1.9,1.6,3.8,3.2,5.6,4.8c0.7,0.6,1.2,0.8,2,0.1c2.1-1.9,4.2-3.6,6.3-5.5c4.4-3.9,8.9-7.8,13.3-11.7
		c5.9-5.1,11.8-10.3,17.7-15.4c2.9-2.6,5.9-5.2,8.8-7.7c4.5-3.9,8.9-7.7,13.4-11.6c4.3-3.8,8.6-7.6,13-11.4c4.6-4,9.2-7.9,13.7-11.9
		c4.2-3.7,8.4-7.4,12.6-11.1c5.5-4.8,11.1-9.6,16.7-14.4c4.7-4.1,9.4-8.1,14.1-12.3c0.8-0.7,1.9-1.4,2.3-2.6
		C850.7,142.9,589.8,143,587.9,143.5z"/>
	<path class="st5" d="M676.2,228c2-1.4,2-1.4,3.8,0.2c5.9,5.2,11.9,10.4,17.9,15.6c4.3,3.7,8.5,7.5,12.8,11.2
		c2.9,2.5,5.7,5.1,8.6,7.6c1.3,1.2,1.7,1.2,3.1,0c2.8-2.4,5.6-5,8.5-7.4c6-5.2,11.9-10.4,17.9-15.6c4.3-3.8,8.6-7.6,12.9-11.4
		c1.8-1.6,1.8-1.6,3.8-0.2l0,0c0.1,0.9,0.4,1.5,1.5,1.5l0,0c-0.1,1.1,0.2,1.9,1.5,1.9l0,0c-0.2,1.2,0.5,1.9,1.5,2.4l0,0
		c0.1,0.9,0.4,1.5,1.5,1.5l0,0c-0.1,1.1,0.2,1.9,1.5,1.9l0,0c-0.1,1.1,0.2,1.9,1.5,1.9l0,0c-0.1,1.1,0.2,1.9,1.5,1.9l0,0
		c-0.1,1.1,0.2,1.9,1.5,1.9l0,0c-0.1,1.1,0.2,1.9,1.5,1.9l0,0c-0.1,1.1,0.2,1.9,1.5,1.9l0,0c-0.1,1.1,0.2,1.9,1.5,1.9l0,0
		c-0.1,1.1,0.2,1.9,1.5,1.9l0,0c-0.3,1.4,0.8,2.2,1.5,3.1c10.4,14,20.9,28,31.4,41.9c1.3,1.7,2.3,3.7,4.1,4.9l0,0
		c0.1,0.9,0.6,1.5,1.5,1.9l0,0c0.1,1,0.6,1.5,1.5,1.9l0,0c0.1,0.9,0.6,1.5,1.5,1.9l0,0c0.1,0.9,0.6,1.5,1.5,1.9l0,0
		c0.1,0.9,0.6,1.6,1.5,1.9l0,0c0.1,1,0.6,1.6,1.5,1.9l0,0c0.1,1,0.6,1.6,1.5,1.9l0,0c0.1,1,0.6,1.6,1.5,1.9l0,0
		c0.1,1,0.6,1.6,1.5,1.9l0,0c0.1,1,0.6,1.6,1.5,1.9l0,0c0.1,1,0.6,1.6,1.5,1.9l0,0c0.1,0.9,0.4,1.5,1.5,1.5l0,0
		c-0.1,1.1,0.2,1.9,1.5,1.9l0,0c-0.2,1.2,0.5,1.9,1.5,2.4l0,0c0.1,1,0.6,1.6,1.5,1.9l0,0c0.1,0.9,0.4,1.5,1.5,1.5l0,0
		c-0.3,0.7,0.5,1.3,0.2,2.2c-81.4,0-162.7,0-244.2,0c-0.5-0.8,0.5-1.5,0.1-2.2l0,0c1,0.1,1.4-0.6,1.5-1.5l0,0c0.8-0.4,1.4-1,1.5-1.9
		l0,0c1-0.5,1.7-1.2,1.5-2.4l0,0c1.3-0.1,1.6-0.8,1.5-1.9l0,0c1,0.1,1.4-0.6,1.5-1.5l0,0c0.8-0.4,1.4-1,1.5-1.9l0,0
		c0.8-0.4,1.4-1,1.5-1.9l0,0c0.8-0.4,1.4-1,1.5-1.9l0,0c0.8-0.4,1.4-1,1.5-1.9l0,0c0.8-0.4,1.4-1,1.5-1.9l0,0c0.8-0.4,1.4-1,1.5-1.9
		l0,0c0.8-0.4,1.4-1,1.5-1.9l0,0c0.8-0.4,1.4-1,1.5-1.9l0,0c0.8-0.4,1.4-1,1.5-1.9l0,0c0.8-0.4,1.4-1,1.5-1.9l0,0
		c0.8-0.4,1.4-1,1.5-1.9l0,0c0.7-0.2,1-0.8,1.4-1.3c5.2-6.9,10.3-13.8,15.5-20.6c4.8-6.4,9.7-12.9,14.5-19.3
		c0.6-0.8,1.7-1.6,1.4-2.9l0,0c1.3-0.1,1.6-0.8,1.5-1.9l0,0c1.3-0.1,1.6-0.8,1.5-1.9l0,0c1.3-0.1,1.6-0.8,1.5-1.9l0,0
		c1.3-0.1,1.6-0.8,1.5-1.9l0,0c1.3-0.1,1.6-0.8,1.5-1.9l0,0c1.3-0.1,1.6-0.8,1.5-1.9l0,0c1,0.1,1.4-0.6,1.5-1.5l0,0
		c1-0.5,1.7-1.2,1.5-2.4l0,0c1.3-0.1,1.6-0.8,1.5-1.9l0,0c1,0.1,1.4-0.6,1.5-1.5l0,0c0.8-0.4,1.4-1,1.5-1.9l0,0
		c0.8-0.4,1.4-1,1.5-1.9l0,0c0.8-0.4,1.4-1,1.5-1.9l0,0c0.8-0.4,1.4-1,1.5-1.9l0,0C675.6,229.6,676.2,229,676.2,228L676.2,228z
		 M612.6,325.8c72.3,0,144.4,0,216.5,0c-0.3-0.9-0.8-1.5-1.3-2.2c-12.6-16.8-25.2-33.6-37.8-50.4c-8.7-11.6-17.4-23.3-26.1-34.9
		c-1-1.3-1.2-1.4-2.4-0.3c-3.9,3.4-7.8,6.8-11.7,10.2c-6,5.2-11.9,10.4-17.9,15.6c-3.2,2.8-6.5,5.5-9.6,8.3c-1.1,1-1.7,1-2.8,0
		c-6.8-6-13.6-11.8-20.4-17.7c-6.3-5.4-12.5-10.9-18.8-16.4c-1.3-1.1-1.4-1.1-2.4,0.2c-5.8,7.7-11.6,15.5-17.4,23.2
		c-14.1,18.9-28.2,37.7-42.3,56.6C616.3,320.5,614.3,322.9,612.6,325.8z"/>
	<path class="st6" d="M587.9,143.5c1.9-0.5,262.7-0.6,265.8-0.2c-0.4,1.3-1.4,1.9-2.3,2.6c-4.7,4.1-9.4,8.2-14.1,12.3
		c-5.6,4.8-11.1,9.6-16.7,14.4c-4.2,3.7-8.4,7.4-12.6,11.1c-4.6,4-9.2,7.9-13.7,11.9c-4.3,3.8-8.6,7.6-13,11.4
		c-4.5,3.9-8.9,7.7-13.4,11.6c-3,2.6-5.9,5.2-8.8,7.7c-5.9,5.1-11.8,10.3-17.7,15.4c-4.4,3.9-8.9,7.8-13.3,11.7
		c-2.1,1.8-4.3,3.6-6.3,5.5c-0.8,0.7-1.3,0.6-2-0.1c-1.8-1.6-3.8-3.2-5.6-4.8c-6.9-6.1-13.8-12.1-20.7-18.2
		c-7.7-6.7-15.4-13.5-23.1-20.2c-7.5-6.6-15-13.1-22.6-19.7c-7.5-6.6-15-13.1-22.6-19.7c-7.6-6.6-15.1-13.2-22.7-19.8
		c-4.2-3.7-8.5-7.3-12.7-10.9C589.2,145,588.4,144.4,587.9,143.5z M606.7,150.4c1.4,2,3.2,3.1,4.7,4.5c3.2,2.9,6.4,5.7,9.7,8.6
		c4.5,3.9,9.1,7.8,13.6,11.8c4.3,3.7,8.5,7.5,12.8,11.2c5.8,5.1,11.7,10.2,17.5,15.2c3,2.6,5.9,5.2,8.8,7.7c4.3,3.8,8.7,7.5,13,11.3
		c4.5,3.9,8.9,7.8,13.3,11.7c5.9,5.2,11.9,10.4,17.9,15.6c3.1,2.7,2.4,2.8,5.7-0.1c3.3-2.8,6.5-5.7,9.7-8.6
		c5.6-4.9,11.2-9.7,16.8-14.6c4.3-3.7,8.5-7.5,12.8-11.2c6.1-5.3,12.2-10.6,18.2-15.9c2.9-2.6,5.9-5.2,8.8-7.7
		c5.7-5,11.5-9.9,17.2-14.9c4.2-3.7,8.4-7.4,12.6-11c4.6-4,9.2-8,13.7-12c0.4-0.4,1.1-0.7,1.1-1.6
		C758.8,150.4,683,150.4,606.7,150.4z"/>
	<path class="st7" d="M599,330.7c-1.9,1.4-2.9,3.6-4.4,5.3c-0.7,0.8-1.3,1.7-2.3,2.9c0-62.5,0-124.5,0-186.4
		c0.7-0.4,1.1,0.2,1.4,0.5c7.8,6.8,15.6,13.7,23.4,20.5c8.1,7,16.2,14,24.2,21c5.7,4.9,11.3,9.9,16.9,14.9c5.6,4.9,11.3,9.9,17,14.7
		c1.6,1.3,0.9,2.6,0.8,4c0,0,0,0,0,0c-1.3,0.1-1.6,0.8-1.5,1.9c0,0,0,0,0,0c-1.3,0.1-1.6,0.8-1.5,1.9l0,0c-1.3,0.1-1.6,0.8-1.5,1.9
		l0,0c-1.3,0.1-1.6,0.8-1.5,1.9l0,0c-1.3,0.1-1.6,0.8-1.5,1.9l0,0c-1-0.1-1.4,0.6-1.5,1.5c0,0,0,0,0,0c-0.8,0.4-1.4,1-1.5,1.9
		c0,0,0,0,0,0c-1,0.5-1.7,1.2-1.5,2.4l0,0c-1-0.1-1.4,0.6-1.5,1.5l0,0c-0.8,0.4-1.4,1-1.5,1.9c0,0,0,0,0,0c-0.8,0.4-1.4,1-1.5,1.9
		l0,0c-0.8,0.4-1.4,1-1.5,1.9l0,0c-0.8,0.4-1.4,1-1.5,1.9c0,0,0,0,0,0c-0.8,0.4-1.4,1-1.5,1.9l0,0c-0.8,0.4-1.4,1-1.5,1.9l0,0
		c-0.7,0.2-1.1,0.9-1.5,1.5c-5.1,6.8-10.1,13.5-15.2,20.3c-4.9,6.6-9.9,13.1-14.8,19.7c-0.6,0.8-1.5,1.5-1.2,2.7l0,0
		c-1.3,0-1.6,0.8-1.5,1.9c0,0,0,0,0,0c-1.3,0-1.6,0.8-1.5,1.9c0,0,0,0,0,0c-1.3,0-1.6,0.8-1.5,1.9l0,0c-1.3,0-1.6,0.8-1.5,1.9l0,0
		c-1.3,0-1.6,0.8-1.5,1.9l0,0c-1.3,0-1.6,0.8-1.5,1.9c0,0,0,0,0,0c-1.3,0.1-1.6,0.8-1.5,1.9l0,0c-1.3,0.1-1.6,0.8-1.5,1.9l0,0
		c-1.3,0.1-1.6,0.8-1.5,1.9l0,0c-1.3,0.1-1.6,0.8-1.5,1.9c0,0,0,0,0,0c-1.3,0.1-1.6,0.8-1.5,1.9l0,0c-1-0.1-1.4,0.6-1.5,1.5
		c0,0,0,0,0,0c-0.8,0.4-1.4,1-1.5,1.9l0,0c-1,0.5-1.7,1.2-1.5,2.4l0,0c-1.3,0.1-1.6,0.8-1.5,1.9l0,0
		C599.4,329.2,599,329.9,599,330.7L599,330.7z M599.5,316.9c0.6,0.1,0.8-0.4,1-0.7c7.6-10.1,15.2-20.2,22.7-30.3
		c11.8-15.7,23.5-31.5,35.3-47.2c2.7-3.6,5.3-7.2,8-10.8c0.6-0.8,0.8-1.4-0.2-2.2c-1-0.8-1.9-1.7-2.8-2.6
		c-6.8-5.9-13.7-11.8-20.5-17.7c-5.7-4.9-11.3-9.9-16.9-14.9c-7.5-6.5-14.9-13.1-22.4-19.5c-1.3-1.1-2.5-2.6-4.2-3.3
		C599.5,217.7,599.5,267.3,599.5,316.9z"/>
	<path class="st8" d="M782.8,250.6c-0.1-1-0.6-1.6-1.5-1.9l0,0c-0.1-1-0.6-1.6-1.5-1.9l0,0c-0.1-1-0.6-1.6-1.5-1.9c0,0,0,0,0,0
		c-0.1-1-0.6-1.6-1.5-1.9l0,0c-0.1-1-0.6-1.6-1.5-1.9l0,0c-0.1-1-0.6-1.6-1.5-1.9l0,0c-0.1-1-0.6-1.6-1.5-1.9c0,0,0,0,0,0
		c-0.1-1-0.6-1.6-1.5-1.9l0,0c-0.1-0.9-0.4-1.5-1.5-1.5l0,0c0.2-1.2-0.5-1.9-1.5-2.4l0,0c-0.1-1-0.6-1.6-1.5-1.9l0,0
		c-0.1-0.9-0.4-1.5-1.5-1.5l0,0c-0.4-2.7-0.4-2.7,2-4.8c4.5-3.9,9-7.9,13.5-11.9c5.5-4.8,11.1-9.6,16.7-14.4
		c4.2-3.7,8.4-7.4,12.6-11.1c4.6-4,9.2-7.9,13.7-11.9c4.4-3.8,8.7-7.7,13.1-11.5c3.9-3.4,7.8-6.8,11.7-10.1c0.2,0.1,0.3,0.2,0.4,0.2
		c0.1,0,0.1,0.1,0.1,0.2c0,61.3,0.1,122.7,0.1,184c0,0.5-0.1,0.9-0.1,1.7c-1.1-0.6-1.6-1.6-2.2-2.3c-1.5-1.7-2.4-3.9-4.4-5.3
		c0,0,0,0,0,0c-0.1-0.9-0.4-1.5-1.5-1.5c0,0,0,0,0,0c0.1-1.1-0.2-1.9-1.5-1.9l0,0c0.2-1.2-0.5-1.9-1.5-2.4l0,0
		c-0.1-1-0.6-1.6-1.5-1.9l0,0c-0.1-0.9-0.4-1.5-1.5-1.5c0,0,0,0,0,0c0.1-1.1-0.2-1.9-1.5-1.9c0,0,0,0,0,0c0.1-1.1-0.2-1.9-1.5-1.9
		l0,0c0.1-1.1-0.2-1.9-1.5-1.9l0,0c0.1-1.1-0.2-1.9-1.5-1.9l0,0c0.1-1.1-0.2-1.9-1.5-1.9c0,0,0,0,0,0c0.1-1.1-0.2-1.9-1.5-1.9l0,0
		c0.1-1.1-0.1-1.9-1.5-1.9c0,0,0,0,0,0c0.1-1.1-0.1-1.9-1.5-1.9l0,0c0.1-1.1-0.1-1.9-1.5-1.9c0,0,0,0,0,0c0.1-1.1-0.1-1.9-1.5-1.9
		c0,0,0,0,0,0c0.1-1.1-0.1-1.9-1.5-1.9l0,0c0.3-1.4-0.8-2.2-1.5-3.1c-2.7-3.7-5.4-7.3-8.2-10.9c-8.7-11.7-17.5-23.4-26.2-35
		 M842.2,168.2c-0.8,0-1.2,0.4-1.5,0.7c-4.1,3.6-8.2,7.2-12.3,10.7c-5.5,4.8-11.1,9.6-16.7,14.4c-4.5,3.9-9,7.9-13.5,11.9
		c-7.4,6.5-14.9,13-22.4,19.5c-1.5,1.3-1.5,1.4-0.4,3c0.2,0.3,0.4,0.5,0.6,0.8c11.2,15,22.4,29.9,33.6,44.9c10.5,14,21,28,31.5,42
		c0.3,0.3,0.3,1,1,0.7C842.2,267.3,842.2,217.8,842.2,168.2z"/>
	<path class="st4" d="M612.6,325.8c1.7-2.9,3.7-5.3,5.6-7.7c14.1-18.9,28.2-37.7,42.3-56.6c5.8-7.7,11.6-15.5,17.4-23.2
		c1-1.3,1.1-1.3,2.4-0.2c6.3,5.5,12.5,10.9,18.8,16.4c6.8,5.9,13.7,11.8,20.4,17.7c1.1,1,1.7,1,2.8,0c3.1-2.8,6.4-5.5,9.6-8.3
		c6-5.2,11.9-10.4,17.9-15.6c3.9-3.4,7.8-6.8,11.7-10.2c1.3-1.1,1.4-1.1,2.4,0.3c8.7,11.6,17.4,23.3,26.1,34.9
		c12.6,16.8,25.2,33.6,37.8,50.4c0.5,0.6,1,1.2,1.3,2.2C756.9,325.8,684.9,325.8,612.6,325.8z"/>
	<path class="st4" d="M606.7,150.4c76.2,0,152.1,0,228,0c0,0.9-0.6,1.2-1.1,1.6c-4.6,4-9.1,8-13.7,12c-4.2,3.7-8.4,7.4-12.6,11
		c-5.7,5-11.5,9.9-17.2,14.9c-3,2.6-5.9,5.2-8.8,7.7c-6.1,5.3-12.2,10.6-18.2,15.9c-4.3,3.7-8.5,7.5-12.8,11.2
		c-5.6,4.9-11.2,9.7-16.8,14.6c-3.3,2.8-6.4,5.7-9.7,8.6c-3.3,2.9-2.6,2.8-5.7,0.1c-6-5.1-11.9-10.4-17.9-15.6
		c-4.4-3.9-8.9-7.8-13.3-11.7c-4.3-3.8-8.7-7.5-13-11.3c-3-2.6-5.9-5.2-8.8-7.7c-5.8-5.1-11.7-10.2-17.5-15.2
		c-4.3-3.7-8.5-7.5-12.8-11.2c-4.5-3.9-9.1-7.8-13.6-11.8c-3.2-2.8-6.5-5.7-9.7-8.6C609.9,153.5,608.1,152.4,606.7,150.4z"/>
	<path class="st4" d="M599.5,316.9c0-49.6,0-99.2,0-149.1c1.7,0.8,2.9,2.2,4.2,3.3c7.5,6.4,15,13,22.4,19.5
		c5.6,4.9,11.3,9.9,16.9,14.9c6.8,5.9,13.6,11.8,20.5,17.7c1,0.8,1.8,1.8,2.8,2.6c1,0.7,0.8,1.3,0.2,2.2c-2.7,3.6-5.3,7.2-8,10.8
		c-11.8,15.7-23.5,31.5-35.3,47.2c-7.6,10.1-15.2,20.2-22.7,30.3C600.2,316.5,600.1,317,599.5,316.9z"/>
	<path class="st4" d="M842.2,168.2c0,49.7,0,99.1,0,148.7c-0.7,0.2-0.7-0.4-1-0.7c-10.5-14-21-28-31.5-42
		c-11.2-15-22.4-29.9-33.6-44.9c-0.2-0.3-0.4-0.5-0.6-0.8c-1.2-1.7-1.2-1.7,0.4-3c7.5-6.5,14.9-13,22.4-19.5c4.5-3.9,9-8,13.5-11.9
		c5.5-4.8,11.1-9.6,16.7-14.4c4.1-3.6,8.2-7.2,12.3-10.7C841,168.6,841.3,168.2,842.2,168.2z"/>
</g>
<g>
	<path class="st9" d="M3.4,262.4c0.3-12.2-1-24.4,0-36.6c0.1-1.6,0-3.2,0-4.8c0.8-1.4,0.7-3,0.8-4.4c1.8-19.9,6.4-39.1,13.2-57.9
		c4.1-11.5,9.4-22.6,15.3-33.3c7-12.8,15.2-24.7,24.5-36c6.5-7.9,13.5-15.4,20.9-22.4c13.4-12.5,28-23.5,43.9-32.7
		c14.9-8.6,30.6-15.5,47-20.7c11-3.5,22.3-6.2,33.7-8c6.1-1,12.3-1.8,18.5-2.2c2.5-0.2,5.1-0.4,7.6-0.4c0.4,0,0.8-0.1,1.1-0.4
		c6.9,0,13.8,0,20.6,0c0.3,0.3,0.7,0.4,1.1,0.4c3.4-0.2,6.7,0.4,10,0.6c3.1,0.2,6.2,0.5,9.3,1c6.2,0.9,12.4,1.9,18.6,3.2
		c6.3,1.3,12.6,2.9,18.8,4.7c14.1,4.2,27.8,9.6,40.9,16.4c13.1,6.8,25.5,14.6,37.1,23.7c9.1,7.1,17.7,14.7,25.7,23
		c12.6,13.1,23.6,27.5,32.9,43.1c9.3,15.6,16.7,32,22.2,49.3c3.2,10,5.8,20.2,7.5,30.6c1.1,6.2,2,12.4,2.5,18.7
		c0.2,2.9,0.3,5.7,0.4,8.6c0,0.6-0.2,1.3,0.4,1.8c0,8.3,0,16.6,0,25c-0.5,0.4-0.4,1-0.4,1.5c-0.1,3-0.2,6.1-0.4,9.1
		c-0.5,5.6-1.2,11.2-2.2,16.8c-1.3,8-3.1,16-5.3,23.8c-2.7,9.7-6,19.2-9.9,28.5c-6.5,15.4-14.5,29.9-24,43.6
		c-5.6,8-11.7,15.6-18.2,22.9c-4.5,5.1-9.3,9.9-14.2,14.6c-7.8,7.5-16.2,14.2-25,20.5c-12,8.6-24.7,15.9-38.1,22.1
		c-14.4,6.7-29.3,11.8-44.7,15.5c-7.9,1.9-15.9,3.4-24,4.4c-5.1,0.6-10.3,1.1-15.5,1.5c-9.5,0.7-19,0.5-28.5,0.2
		c-6-0.2-11.9-0.9-17.8-1.7c-9.6-1.2-19-3-28.4-5.4c-12.3-3.2-24.3-7.3-36-12.4c-12.6-5.5-24.5-12.1-35.9-19.6
		c-7.7-5.1-15.1-10.7-22.2-16.7c-5.5-4.7-10.8-9.5-15.9-14.6c-13.2-13.6-24.8-28.4-34.5-44.6c-10-16.6-17.8-34.1-23.5-52.6
		c-2.9-9.5-5.2-19.1-6.8-28.8c-1-5.9-2-11.8-2.4-17.8C4.2,263,4.1,262.5,3.4,262.4z M252,9.9C113.6,9.8,10.7,112.9,10.1,238.5
		c-0.3,63.6,22,118.8,66.7,164c44.8,45.4,99.9,67.7,163.7,68.7c63.2-1,117.9-22.8,162.7-67.5c45-44.8,67.8-99.6,67.9-163
		c0.1-63.3-22.5-118.1-67.3-162.9C358.8,32.7,303.7,10.8,252,9.9z"/>
	<path class="st10" d="M252,9.9c51.8,0.9,106.8,22.8,151.8,67.8c44.8,44.8,67.4,99.6,67.3,162.9c-0.1,63.4-22.9,118.1-67.9,163
		c-44.8,44.7-99.6,66.5-162.7,67.5c-63.7-1-118.9-23.2-163.7-68.7c-44.6-45.2-66.9-100.4-66.7-164C10.7,112.9,113.6,9.8,252,9.9z
		 M120.9,331c0.4,0.8-0.7,1.5-0.1,2.2c81.4,0,162.8,0,244.2,0c0.2-0.9-0.5-1.5-0.2-2.2c1.9,1.4,2.9,3.6,4.4,5.3
		c0.6,0.7,1.1,1.7,2.2,2.3c0.1-0.8,0.1-1.2,0.1-1.7c0-61.3-0.1-122.7-0.1-184c0-0.1-0.1-0.1-0.1-0.2c-0.1-0.1-0.1-0.1-0.4-0.2
		c-3.9,3.3-7.8,6.7-11.7,10.1c-4.4,3.8-8.7,7.7-13.1,11.5c-4.6,4-9.2,7.9-13.7,11.9c-4.2,3.7-8.4,7.4-12.6,11.1
		c-5.5,4.8-11.1,9.6-16.7,14.4c-4.5,3.9-9,7.9-13.5,11.9c-2.4,2.1-2.5,2.1-2,4.8c-2-1.4-2-1.4-3.8,0.2c-4.3,3.8-8.6,7.6-12.9,11.4
		c-6,5.2-11.9,10.4-17.9,15.6c-2.8,2.5-5.6,5-8.5,7.4c-1.3,1.2-1.7,1.2-3.1,0c-2.9-2.5-5.8-5.1-8.6-7.6c-4.3-3.7-8.5-7.5-12.8-11.2
		c-6-5.2-11.9-10.4-17.9-15.6c-1.8-1.6-1.8-1.6-3.8-0.2c0.1-1.4,0.7-2.7-0.8-4c-5.8-4.8-11.4-9.8-17-14.7
		c-5.7-4.9-11.2-9.9-16.9-14.9c-8.1-7-16.2-14-24.2-21c-7.8-6.8-15.6-13.7-23.4-20.5c-0.4-0.3-0.7-0.9-1.4-0.5c0,62,0,124,0,186.4
		c0.9-1.2,1.6-2.1,2.3-2.9C118,334.6,119,332.4,120.9,331z M109.9,143.8c0.5,0.9,1.2,1.5,1.9,2.1c4.2,3.7,8.5,7.3,12.7,10.9
		c7.6,6.6,15.2,13.2,22.7,19.8c7.5,6.6,15,13.1,22.6,19.7c7.5,6.6,15,13.1,22.6,19.7c7.7,6.7,15.4,13.4,23.1,20.2
		c6.9,6.1,13.8,12.1,20.7,18.2c1.9,1.6,3.8,3.2,5.6,4.8c0.7,0.6,1.2,0.8,2,0.1c2.1-1.9,4.2-3.6,6.3-5.5c4.4-3.9,8.9-7.8,13.3-11.7
		c5.9-5.1,11.8-10.3,17.7-15.4c2.9-2.6,5.9-5.2,8.8-7.7c4.5-3.9,8.9-7.7,13.4-11.6c4.3-3.8,8.6-7.6,13-11.4c4.6-4,9.2-7.9,13.7-11.9
		c4.2-3.7,8.4-7.4,12.6-11.1c5.5-4.8,11.1-9.6,16.7-14.4c4.7-4.1,9.4-8.1,14.1-12.3c0.8-0.7,1.9-1.4,2.3-2.6
		C372.6,143.2,111.8,143.3,109.9,143.8z"/>
	<path class="st11" d="M198.2,228.3c2-1.4,2-1.4,3.8,0.2c5.9,5.2,11.9,10.4,17.9,15.6c4.3,3.7,8.5,7.5,12.8,11.2
		c2.9,2.5,5.7,5.1,8.6,7.6c1.3,1.2,1.7,1.2,3.1,0c2.8-2.4,5.6-5,8.5-7.4c6-5.2,11.9-10.4,17.9-15.6c4.3-3.8,8.6-7.6,12.9-11.4
		c1.8-1.6,1.8-1.6,3.8-0.2l0,0c0.1,0.9,0.4,1.5,1.5,1.5l0,0c-0.1,1.1,0.2,1.9,1.5,1.9l0,0c-0.2,1.2,0.5,1.9,1.5,2.4l0,0
		c0.1,0.9,0.4,1.5,1.5,1.5l0,0c-0.1,1.1,0.2,1.9,1.5,1.9l0,0c-0.1,1.1,0.2,1.9,1.5,1.9l0,0c-0.1,1.1,0.2,1.9,1.5,1.9l0,0
		c-0.1,1.1,0.2,1.9,1.5,1.9l0,0c-0.1,1.1,0.2,1.9,1.5,1.9l0,0c-0.1,1.1,0.2,1.9,1.5,1.9l0,0c-0.1,1.1,0.2,1.9,1.5,1.9l0,0
		c-0.1,1.1,0.2,1.9,1.5,1.9l0,0c-0.3,1.4,0.8,2.2,1.5,3.1c10.4,14,20.9,28,31.4,41.9c1.3,1.7,2.3,3.7,4.1,4.9l0,0
		c0.1,0.9,0.6,1.5,1.5,1.9l0,0c0.1,1,0.6,1.5,1.5,1.9l0,0c0.1,0.9,0.6,1.5,1.5,1.9l0,0c0.1,0.9,0.6,1.5,1.5,1.9l0,0
		c0.1,0.9,0.6,1.6,1.5,1.9l0,0c0.1,1,0.6,1.6,1.5,1.9l0,0c0.1,1,0.6,1.6,1.5,1.9l0,0c0.1,1,0.6,1.6,1.5,1.9l0,0
		c0.1,1,0.6,1.6,1.5,1.9l0,0c0.1,1,0.6,1.6,1.5,1.9l0,0c0.1,1,0.6,1.6,1.5,1.9l0,0c0.1,0.9,0.4,1.5,1.5,1.5l0,0
		c-0.1,1.1,0.2,1.9,1.5,1.9l0,0c-0.2,1.2,0.5,1.9,1.5,2.4l0,0c0.1,1,0.6,1.6,1.5,1.9l0,0c0.1,0.9,0.4,1.5,1.5,1.5l0,0
		c-0.3,0.7,0.5,1.3,0.2,2.2c-81.4,0-162.7,0-244.2,0c-0.5-0.8,0.5-1.5,0.1-2.2l0,0c1,0.1,1.4-0.6,1.5-1.5l0,0c0.8-0.4,1.4-1,1.5-1.9
		l0,0c1-0.5,1.7-1.2,1.5-2.4l0,0c1.3-0.1,1.6-0.8,1.5-1.9l0,0c1,0.1,1.4-0.6,1.5-1.5l0,0c0.8-0.4,1.4-1,1.5-1.9l0,0
		c0.8-0.4,1.4-1,1.5-1.9l0,0c0.8-0.4,1.4-1,1.5-1.9l0,0c0.8-0.4,1.4-1,1.5-1.9l0,0c0.8-0.4,1.4-1,1.5-1.9l0,0c0.8-0.4,1.4-1,1.5-1.9
		l0,0c0.8-0.4,1.4-1,1.5-1.9l0,0c0.8-0.4,1.4-1,1.5-1.9l0,0c0.8-0.4,1.4-1,1.5-1.9l0,0c0.8-0.4,1.4-1,1.5-1.9l0,0
		c0.8-0.4,1.4-1,1.5-1.9l0,0c0.7-0.2,1-0.8,1.4-1.3c5.2-6.9,10.3-13.8,15.5-20.6c4.8-6.4,9.7-12.9,14.5-19.3
		c0.6-0.8,1.7-1.6,1.4-2.9l0,0c1.3-0.1,1.6-0.8,1.5-1.9l0,0c1.3-0.1,1.6-0.8,1.5-1.9l0,0c1.3-0.1,1.6-0.8,1.5-1.9l0,0
		c1.3-0.1,1.6-0.8,1.5-1.9l0,0c1.3-0.1,1.6-0.8,1.5-1.9l0,0c1.3-0.1,1.6-0.8,1.5-1.9l0,0c1,0.1,1.4-0.6,1.5-1.5l0,0
		c1-0.5,1.7-1.2,1.5-2.4l0,0c1.3-0.1,1.6-0.8,1.5-1.9l0,0c1,0.1,1.4-0.6,1.5-1.5l0,0c0.8-0.4,1.4-1,1.5-1.9l0,0
		c0.8-0.4,1.4-1,1.5-1.9l0,0c0.8-0.4,1.4-1,1.5-1.9l0,0c0.8-0.4,1.4-1,1.5-1.9l0,0C197.6,229.9,198.1,229.3,198.2,228.3L198.2,228.3
		z M134.5,326.1c72.3,0,144.4,0,216.5,0c-0.3-0.9-0.8-1.5-1.3-2.2c-12.6-16.8-25.2-33.6-37.8-50.4c-8.7-11.6-17.4-23.3-26.1-34.9
		c-1-1.3-1.2-1.4-2.4-0.3c-3.9,3.4-7.8,6.8-11.7,10.2c-6,5.2-11.9,10.4-17.9,15.6c-3.2,2.8-6.5,5.5-9.6,8.3c-1.1,1-1.7,1-2.8,0
		c-6.8-6-13.6-11.8-20.4-17.7c-6.3-5.4-12.5-10.9-18.8-16.4c-1.3-1.1-1.4-1.1-2.4,0.2c-5.8,7.7-11.6,15.5-17.4,23.2
		c-14.1,18.9-28.2,37.7-42.3,56.6C138.3,320.8,136.2,323.2,134.5,326.1z"/>
	<path class="st9" d="M109.9,143.8c1.9-0.5,262.7-0.6,265.8-0.2c-0.4,1.3-1.4,1.9-2.3,2.6c-4.7,4.1-9.4,8.2-14.1,12.3
		c-5.6,4.8-11.1,9.6-16.7,14.4c-4.2,3.7-8.4,7.4-12.6,11.1c-4.6,4-9.2,7.9-13.7,11.9c-4.3,3.8-8.6,7.6-13,11.4
		c-4.5,3.9-8.9,7.7-13.4,11.6c-3,2.6-5.9,5.2-8.8,7.7c-5.9,5.1-11.8,10.3-17.7,15.4c-4.4,3.9-8.9,7.8-13.3,11.7
		c-2.1,1.8-4.3,3.6-6.3,5.5c-0.8,0.7-1.3,0.6-2-0.1c-1.8-1.6-3.8-3.2-5.6-4.8c-6.9-6.1-13.8-12.1-20.7-18.2
		c-7.7-6.7-15.4-13.5-23.1-20.2c-7.5-6.6-15-13.1-22.6-19.7c-7.5-6.6-15-13.1-22.6-19.7c-7.6-6.6-15.1-13.2-22.7-19.8
		c-4.2-3.7-8.5-7.3-12.7-10.9C111.1,145.3,110.3,144.7,109.9,143.8z M128.7,150.7c1.4,2,3.2,3.1,4.7,4.5c3.2,2.9,6.4,5.7,9.7,8.6
		c4.5,3.9,9.1,7.8,13.6,11.8c4.3,3.7,8.5,7.5,12.8,11.2c5.8,5.1,11.7,10.2,17.5,15.2c3,2.6,5.9,5.2,8.8,7.7c4.3,3.8,8.7,7.5,13,11.3
		c4.5,3.9,8.9,7.8,13.3,11.7c5.9,5.2,11.9,10.4,17.9,15.6c3.1,2.7,2.4,2.8,5.7-0.1c3.3-2.8,6.5-5.7,9.7-8.6
		c5.6-4.9,11.2-9.7,16.8-14.6c4.3-3.7,8.5-7.5,12.8-11.2c6.1-5.3,12.2-10.6,18.2-15.9c2.9-2.6,5.9-5.2,8.8-7.7
		c5.7-5,11.5-9.9,17.2-14.9c4.2-3.7,8.4-7.4,12.6-11c4.6-4,9.2-8,13.7-12c0.4-0.4,1.1-0.7,1.1-1.6
		C280.8,150.7,204.9,150.7,128.7,150.7z"/>
	<path class="st12" d="M120.9,331c-1.9,1.4-2.9,3.6-4.4,5.3c-0.7,0.8-1.3,1.7-2.3,2.9c0-62.5,0-124.5,0-186.4
		c0.7-0.4,1.1,0.2,1.4,0.5c7.8,6.8,15.6,13.7,23.4,20.5c8.1,7,16.2,14,24.2,21c5.7,4.9,11.3,9.9,16.9,14.9c5.6,4.9,11.3,9.9,17,14.7
		c1.6,1.3,0.9,2.6,0.8,4c0,0,0,0,0,0c-1.3,0.1-1.6,0.8-1.5,1.9c0,0,0,0,0,0c-1.3,0.1-1.6,0.8-1.5,1.9l0,0c-1.3,0.1-1.6,0.8-1.5,1.9
		l0,0c-1.3,0.1-1.6,0.8-1.5,1.9l0,0c-1.3,0.1-1.6,0.8-1.5,1.9l0,0c-1-0.1-1.4,0.6-1.5,1.5c0,0,0,0,0,0c-0.8,0.4-1.4,1-1.5,1.9
		c0,0,0,0,0,0c-1,0.5-1.7,1.2-1.5,2.4l0,0c-1-0.1-1.4,0.6-1.5,1.5l0,0c-0.8,0.4-1.4,1-1.5,1.9c0,0,0,0,0,0c-0.8,0.4-1.4,1-1.5,1.9
		l0,0c-0.8,0.4-1.4,1-1.5,1.9l0,0c-0.8,0.4-1.4,1-1.5,1.9c0,0,0,0,0,0c-0.8,0.4-1.4,1-1.5,1.9l0,0c-0.8,0.4-1.4,1-1.5,1.9l0,0
		c-0.7,0.2-1.1,0.9-1.5,1.5c-5.1,6.8-10.1,13.5-15.2,20.3c-4.9,6.6-9.9,13.1-14.8,19.7c-0.6,0.8-1.5,1.5-1.2,2.7l0,0
		c-1.3,0-1.6,0.8-1.5,1.9c0,0,0,0,0,0c-1.3,0-1.6,0.8-1.5,1.9c0,0,0,0,0,0c-1.3,0-1.6,0.8-1.5,1.9l0,0c-1.3,0-1.6,0.8-1.5,1.9l0,0
		c-1.3,0-1.6,0.8-1.5,1.9l0,0c-1.3,0-1.6,0.8-1.5,1.9c0,0,0,0,0,0c-1.3,0.1-1.6,0.8-1.5,1.9l0,0c-1.3,0.1-1.6,0.8-1.5,1.9l0,0
		c-1.3,0.1-1.6,0.8-1.5,1.9l0,0c-1.3,0.1-1.6,0.8-1.5,1.9c0,0,0,0,0,0c-1.3,0.1-1.6,0.8-1.5,1.9l0,0c-1-0.1-1.4,0.6-1.5,1.5
		c0,0,0,0,0,0c-0.8,0.4-1.4,1-1.5,1.9l0,0c-1,0.5-1.7,1.2-1.5,2.4l0,0c-1.3,0.1-1.6,0.8-1.5,1.9l0,0
		C121.3,329.5,121,330.2,120.9,331L120.9,331z M121.4,317.2c0.6,0.1,0.8-0.4,1-0.7c7.6-10.1,15.2-20.2,22.7-30.3
		c11.8-15.7,23.5-31.5,35.3-47.2c2.7-3.6,5.3-7.2,8-10.8c0.6-0.8,0.8-1.4-0.2-2.2c-1-0.8-1.9-1.7-2.8-2.6
		c-6.8-5.9-13.7-11.8-20.5-17.7c-5.7-4.9-11.3-9.9-16.9-14.9c-7.5-6.5-14.9-13.1-22.4-19.5c-1.3-1.1-2.5-2.6-4.2-3.3
		C121.4,218,121.4,267.6,121.4,317.2z"/>
	<path class="st13" d="M304.8,250.9c-0.1-1-0.6-1.6-1.5-1.9l0,0c-0.1-1-0.6-1.6-1.5-1.9l0,0c-0.1-1-0.6-1.6-1.5-1.9c0,0,0,0,0,0
		c-0.1-1-0.6-1.6-1.5-1.9l0,0c-0.1-1-0.6-1.6-1.5-1.9l0,0c-0.1-1-0.6-1.6-1.5-1.9l0,0c-0.1-1-0.6-1.6-1.5-1.9c0,0,0,0,0,0
		c-0.1-1-0.6-1.6-1.5-1.9l0,0c-0.1-0.9-0.4-1.5-1.5-1.5l0,0c0.2-1.2-0.5-1.9-1.5-2.4l0,0c-0.1-1-0.6-1.6-1.5-1.9l0,0
		c-0.1-0.9-0.4-1.5-1.5-1.5l0,0c-0.4-2.7-0.4-2.7,2-4.8c4.5-3.9,9-7.9,13.5-11.9c5.5-4.8,11.1-9.6,16.7-14.4
		c4.2-3.7,8.4-7.4,12.6-11.1c4.6-4,9.2-7.9,13.7-11.9c4.4-3.8,8.7-7.7,13.1-11.5c3.9-3.4,7.8-6.8,11.7-10.1c0.2,0.1,0.3,0.2,0.4,0.2
		c0.1,0,0.1,0.1,0.1,0.2c0,61.3,0.1,122.7,0.1,184c0,0.5-0.1,0.9-0.1,1.7c-1.1-0.6-1.6-1.6-2.2-2.3c-1.5-1.7-2.4-3.9-4.4-5.3
		c0,0,0,0,0,0c-0.1-0.9-0.4-1.5-1.5-1.5c0,0,0,0,0,0c0.1-1.1-0.2-1.9-1.5-1.9l0,0c0.2-1.2-0.5-1.9-1.5-2.4l0,0
		c-0.1-1-0.6-1.6-1.5-1.9l0,0c-0.1-0.9-0.4-1.5-1.5-1.5c0,0,0,0,0,0c0.1-1.1-0.2-1.9-1.5-1.9c0,0,0,0,0,0c0.1-1.1-0.2-1.9-1.5-1.9
		l0,0c0.1-1.1-0.2-1.9-1.5-1.9l0,0c0.1-1.1-0.2-1.9-1.5-1.9l0,0c0.1-1.1-0.2-1.9-1.5-1.9c0,0,0,0,0,0c0.1-1.1-0.2-1.9-1.5-1.9l0,0
		c0.1-1.1-0.1-1.9-1.5-1.9c0,0,0,0,0,0c0.1-1.1-0.1-1.9-1.5-1.9l0,0c0.1-1.1-0.1-1.9-1.5-1.9c0,0,0,0,0,0c0.1-1.1-0.1-1.9-1.5-1.9
		c0,0,0,0,0,0c0.1-1.1-0.1-1.9-1.5-1.9l0,0c0.3-1.4-0.8-2.2-1.5-3.1c-2.7-3.7-5.4-7.3-8.2-10.9c-8.7-11.7-17.5-23.4-26.2-35
		 M364.1,168.5c-0.8,0-1.2,0.4-1.5,0.7c-4.1,3.6-8.2,7.2-12.3,10.7c-5.5,4.8-11.1,9.6-16.7,14.4c-4.5,3.9-9,7.9-13.5,11.9
		c-7.4,6.5-14.9,13-22.4,19.5c-1.5,1.3-1.5,1.4-0.4,3c0.2,0.3,0.4,0.5,0.6,0.8c11.2,15,22.4,29.9,33.6,44.9c10.5,14,21,28,31.5,42
		c0.3,0.3,0.3,1,1,0.7C364.1,267.6,364.1,218.1,364.1,168.5z"/>
	<path class="st14" d="M134.5,326.1c1.7-2.9,3.7-5.3,5.6-7.7c14.1-18.9,28.2-37.7,42.3-56.6c5.8-7.7,11.6-15.5,17.4-23.2
		c1-1.3,1.1-1.3,2.4-0.2c6.3,5.5,12.5,10.9,18.8,16.4c6.8,5.9,13.7,11.8,20.4,17.7c1.1,1,1.7,1,2.8,0c3.1-2.8,6.4-5.5,9.6-8.3
		c6-5.2,11.9-10.4,17.9-15.6c3.9-3.4,7.8-6.8,11.7-10.2c1.3-1.1,1.4-1.1,2.4,0.3c8.7,11.6,17.4,23.3,26.1,34.9
		c12.6,16.8,25.2,33.6,37.8,50.4c0.5,0.6,1,1.2,1.3,2.2C278.9,326.1,206.9,326.1,134.5,326.1z"/>
	<path class="st14" d="M128.7,150.7c76.2,0,152.1,0,228,0c0,0.9-0.6,1.2-1.1,1.6c-4.6,4-9.1,8-13.7,12c-4.2,3.7-8.4,7.4-12.6,11
		c-5.7,5-11.5,9.9-17.2,14.9c-3,2.6-5.9,5.2-8.8,7.7c-6.1,5.3-12.2,10.6-18.2,15.9c-4.3,3.7-8.5,7.5-12.8,11.2
		c-5.6,4.9-11.2,9.7-16.8,14.6c-3.3,2.8-6.4,5.7-9.7,8.6c-3.3,2.9-2.6,2.8-5.7,0.1c-6-5.1-11.9-10.4-17.9-15.6
		c-4.4-3.9-8.9-7.8-13.3-11.7c-4.3-3.8-8.7-7.5-13-11.3c-3-2.6-5.9-5.2-8.8-7.7c-5.8-5.1-11.7-10.2-17.5-15.2
		c-4.3-3.7-8.5-7.5-12.8-11.2c-4.5-3.9-9.1-7.8-13.6-11.8c-3.2-2.8-6.5-5.7-9.7-8.6C131.9,153.8,130.1,152.7,128.7,150.7z"/>
	<path class="st14" d="M121.4,317.2c0-49.6,0-99.2,0-149.1c1.7,0.8,2.9,2.2,4.2,3.3c7.5,6.4,15,13,22.4,19.5
		c5.6,4.9,11.3,9.9,16.9,14.9c6.8,5.9,13.6,11.8,20.5,17.7c1,0.8,1.8,1.8,2.8,2.6c1,0.7,0.8,1.3,0.2,2.2c-2.7,3.6-5.3,7.2-8,10.8
		c-11.8,15.7-23.5,31.5-35.3,47.2c-7.6,10.1-15.2,20.2-22.7,30.3C122.2,316.8,122.1,317.3,121.4,317.2z"/>
	<path class="st15" d="M364.1,168.5c0,49.7,0,99.1,0,148.7c-0.7,0.2-0.7-0.4-1-0.7c-10.5-14-21-28-31.5-42
		c-11.2-15-22.4-29.9-33.6-44.9c-0.2-0.3-0.4-0.5-0.6-0.8c-1.2-1.7-1.2-1.7,0.4-3c7.5-6.5,14.9-13,22.4-19.5c4.5-3.9,9-8,13.5-11.9
		c5.5-4.8,11.1-9.6,16.7-14.4c4.1-3.6,8.2-7.2,12.3-10.7C363,168.9,363.3,168.5,364.1,168.5z"/>
</g>
</svg>
